<svg width="93" height="99" viewBox="0 0 93 99" fill="none" xmlns="http://www.w3.org/2000/svg">
<g clip-path="url(#clip0_1976_20093)">
<path d="M73.4363 98.2971H70.5445C70.2069 98.2968 69.8832 98.1677 69.6444 97.9383C69.4057 97.709 69.2714 97.398 69.271 97.0736V73.9169C69.2714 73.5925 69.4057 73.2815 69.6444 73.0522C69.8832 72.8228 70.2069 72.6937 70.5445 72.6934H73.4363C73.774 72.6937 74.0977 72.8228 74.3364 73.0522C74.5752 73.2815 74.7095 73.5925 74.7099 73.9169V97.0736C74.7095 97.398 74.5752 97.709 74.3364 97.9383C74.0977 98.1677 73.774 98.2968 73.4363 98.2971Z" fill="#EF7713"/>
<path d="M77.6003 67.1953L75.338 65.4646C75.2172 65.3722 75.0787 65.3036 74.9303 65.2627C74.782 65.2217 74.6266 65.2092 74.4733 65.2259C74.3199 65.2427 74.1714 65.2883 74.0363 65.3601C73.9013 65.4319 73.7823 65.5286 73.6861 65.6447L58.6734 83.7602C58.5772 83.8763 58.5058 84.0094 58.4632 84.1519C58.4206 84.2945 58.4076 84.4437 58.425 84.5911C58.4424 84.7385 58.4898 84.8811 58.5646 85.0109C58.6394 85.1406 58.74 85.255 58.8608 85.3474L58.9222 85.3943L66.2252 96.5277C66.3075 96.6532 66.4147 96.7618 66.5408 96.8475C66.6668 96.9332 66.8091 96.9941 66.9597 97.027C67.1102 97.0598 67.266 97.0638 67.4182 97.0387C67.5704 97.0137 67.7159 96.9601 67.8465 96.881L70.293 95.3996C70.5567 95.2399 70.7436 94.9861 70.8126 94.6939C70.8816 94.4018 70.8269 94.0953 70.6607 93.8419L64.6341 84.6545L77.7877 68.7824C77.8838 68.6663 77.9553 68.5332 77.9979 68.3907C78.0405 68.2481 78.0535 68.0989 78.0361 67.9515C78.0187 67.8041 77.9713 67.6615 77.8965 67.5317C77.8217 67.402 77.7211 67.2876 77.6003 67.1953Z" fill="#EF7713"/>
<path d="M75.3603 80.995H61.4496C61.008 80.9945 60.5847 80.8257 60.2725 80.5258C59.9603 80.2258 59.7847 79.8191 59.7842 79.3949V76.1948C59.7847 75.7706 59.9603 75.3639 60.2725 75.0639C60.5847 74.764 61.008 74.5952 61.4496 74.5947H75.3603C75.8018 74.5952 76.2251 74.764 76.5373 75.0639C76.8495 75.3639 77.0252 75.7706 77.0257 76.1948V79.3949C77.0252 79.8191 76.8495 80.2258 76.5373 80.5258C76.2251 80.8257 75.8018 80.9945 75.3603 80.995Z" fill="#CCCCCC"/>
<path d="M70.4599 45.6218C76.2511 45.6218 80.9457 41.1113 80.9457 35.5473C80.9457 29.9832 76.2511 25.4727 70.4599 25.4727C64.6688 25.4727 59.9741 29.9832 59.9741 35.5473C59.9741 41.1113 64.6688 45.6218 70.4599 45.6218Z" fill="#EF7713"/>
<path d="M81.2634 76.545H59.6993C59.3617 76.5446 59.038 76.4156 58.7992 76.1862C58.5605 75.9568 58.4262 75.6458 58.4258 75.3214L62.7381 54.1241C62.7434 52.3071 63.4981 50.5663 64.837 49.283C66.1758 47.9997 67.9894 47.2787 69.8806 47.2778H71.28C73.1736 47.2799 74.9891 48.0035 76.3281 49.29C77.6672 50.5766 78.4204 52.3208 78.4225 54.1402L82.5352 75.3041C82.5372 75.466 82.5058 75.6267 82.4429 75.7769C82.3799 75.927 82.2866 76.0638 82.1684 76.1791C82.0501 76.2945 81.9093 76.3862 81.754 76.449C81.5987 76.5118 81.4319 76.5444 81.2634 76.545Z" fill="#2F2E41"/>
<path d="M62.2866 38.9111C61.6388 38.8937 60.8323 38.872 60.212 38.4361C60.0271 38.301 59.8751 38.1287 59.7668 37.9313C59.6585 37.7339 59.5965 37.5161 59.585 37.2931C59.5738 37.1347 59.6008 36.9759 59.664 36.8292C59.7273 36.6824 59.825 36.5518 59.9495 36.4473C60.274 36.1839 60.7475 36.1222 61.2578 36.2663L60.729 32.5531L61.1174 32.502L61.7388 36.8675L61.4147 36.7245C61.0388 36.5587 60.5229 36.4744 60.2024 36.7348C60.1237 36.8029 60.0624 36.8874 60.0232 36.982C59.9841 37.0765 59.9681 37.1784 59.9767 37.2798C59.9862 37.4457 60.0327 37.6077 60.1132 37.7548C60.1937 37.9019 60.3062 38.0306 60.4431 38.1321C60.9259 38.4713 61.5688 38.5151 62.2977 38.5347L62.2866 38.9111Z" fill="#2F2E41"/>
<path d="M65.4708 32.873H63.3604V33.2495H65.4708V32.873Z" fill="#2F2E41"/>
<path d="M50.6531 67.9637L52.5043 70.0981C52.9199 70.5773 53.6612 70.6421 54.1599 70.2428L72.6757 55.4187C73.1745 55.0194 73.2419 54.3072 72.8263 53.828L70.9751 51.6936C70.5594 51.2143 69.8182 51.1496 69.3194 51.5489L50.8036 66.3729C50.3048 66.7723 50.2374 67.4845 50.6531 67.9637Z" fill="#EF7713"/>
<path d="M73.7528 54.9769L66.1157 61.9497C65.8775 62.1672 65.5613 62.2882 65.2327 62.2876C64.9041 62.2871 64.5884 62.165 64.351 61.9467L60.896 58.7697C60.7595 58.6442 60.6537 58.4912 60.5861 58.3217C60.5185 58.1522 60.4908 57.9704 60.5051 57.7894C60.5194 57.6084 60.5753 57.4327 60.6687 57.275C60.7621 57.1172 60.8907 56.9813 61.0453 56.877L70.1026 50.7669C70.3632 50.5589 70.699 50.4586 71.0364 50.4879C71.3738 50.5173 71.6854 50.6739 71.9029 50.9235L73.9166 53.2453C74.1336 53.4959 74.2382 53.819 74.2075 54.1436C74.1768 54.4683 74.0133 54.768 73.7528 54.9769Z" fill="#2F2E41"/>
<path d="M71.0185 25.3432C70.577 23.4041 71.122 21.3548 72.3032 19.7485C73.5067 18.1118 75.3912 17.0175 77.3897 16.5179C81.2636 15.5494 85.3768 16.9016 88.246 19.4821C91.3421 22.2667 92.7233 26.3152 92.5245 30.3342C92.3229 34.4092 90.4977 38.235 87.7588 41.3117C86.4103 42.8189 84.8763 44.1632 83.1905 45.3149C82.359 45.8855 81.386 46.6287 80.3161 46.6453C79.5407 46.6574 78.5498 46.1748 78.7539 45.295C78.8242 44.9921 79.0456 44.6631 79.3941 44.6235C79.7652 44.5814 79.7697 44.0161 79.3941 44.0588C78.4824 44.1622 77.9513 45.111 78.1982 45.9352C78.4713 46.8463 79.5712 47.2802 80.4843 47.2012C81.642 47.1011 82.6366 46.3898 83.5509 45.7587C84.4644 45.1298 85.3368 44.4475 86.1632 43.7157C89.4424 40.8039 91.9763 37.0117 92.813 32.7576C93.6559 28.4722 92.8252 23.8195 89.9221 20.382C87.2878 17.2629 83.0522 15.249 78.829 15.695C76.6098 15.9294 74.4443 16.7988 72.8293 18.3006C72.0372 19.0342 71.4039 19.911 70.9658 20.8806C70.5277 21.8502 70.2934 22.8934 70.2764 23.9503C70.2761 24.4692 70.3349 24.9866 70.4517 25.4933C70.5325 25.8482 71.0993 25.698 71.0185 25.3432Z" fill="#2F2E41"/>
<path d="M72.3951 25.6418C72.3159 24.9492 72.4025 24.2484 72.6483 23.5929C72.8941 22.9374 73.2926 22.3445 73.8133 21.8596C74.3341 21.3747 74.9633 21.0105 75.6529 20.795C76.3425 20.5794 77.0742 20.5181 77.7923 20.6158C78.1666 20.6611 78.1632 20.0959 77.7923 20.051C76.9965 19.9534 76.1882 20.0295 75.4273 20.2735C74.6664 20.5176 73.9725 20.9233 73.3974 21.4606C72.8223 21.9978 72.3806 22.6528 72.1053 23.3767C71.83 24.1006 71.7281 24.8748 71.8073 25.6418C71.8431 26.0004 72.4313 26.0039 72.3951 25.6418Z" fill="#2F2E41"/>
<path d="M70.0597 23.3291C69.8501 23.3289 69.6472 23.4005 69.4876 23.5311C69.3279 23.6616 69.2219 23.8425 69.1885 24.0413C69.1551 24.2402 69.1966 24.444 69.3054 24.6161C69.4143 24.7882 69.5834 24.9175 69.7825 24.9806L72.5733 25.866C72.7953 25.9364 73.0374 25.9192 73.2462 25.8181C73.4551 25.7171 73.6136 25.5405 73.6869 25.3271C73.7602 25.1138 73.7423 24.8812 73.6371 24.6805C73.5319 24.4799 73.3481 24.3276 73.1261 24.2572L70.3353 23.3718C70.2464 23.3436 70.1534 23.3291 70.0597 23.3291Z" fill="#2F2E41"/>
<path d="M23.5334 45.6569H23.4997C10.542 45.6569 0 35.5283 0 23.0784C0 10.6286 10.542 0.5 23.5 0.5C36.4579 0.5 47 10.6286 47 23.0784C46.9988 26.1322 46.3532 29.1541 45.1024 31.9616C43.8516 34.769 42.0214 37.3037 39.7224 39.4125L44.4503 44.5045L44.2079 44.6033C40.2891 46.1998 36.3185 44.0235 34.6956 42.9335C31.2682 44.7183 27.4319 45.6543 23.5334 45.6569ZM23.4999 0.862577C10.7501 0.862577 0.377369 10.8286 0.377369 23.0784C0.377369 35.3282 10.7501 45.2943 23.4999 45.2943C27.3862 45.2975 31.2103 44.3575 34.6174 42.5615L34.7212 42.5066L34.8176 42.5727C36.2909 43.5798 40.0711 45.733 43.8146 44.3645L39.1962 39.3904L39.3306 39.2695C41.6317 37.1917 43.4658 34.6833 44.7199 31.8988C45.974 29.1143 46.6215 26.1126 46.6226 23.0786C46.6226 10.8286 36.2498 0.862577 23.4999 0.862577Z" fill="#3F3D56"/>
<path d="M30.7776 19.3843C25.955 19.3361 21.133 19.2532 16.3107 19.1903C14.703 19.1693 13.0953 19.1509 11.4876 19.1351C10.1023 19.1212 10.0987 17.0516 11.4876 17.0655C16.3101 17.1137 21.1321 17.1966 25.9545 17.2595C27.5622 17.2805 29.1699 17.2989 30.7776 17.3147C32.1629 17.3286 32.1664 19.3982 30.7776 19.3843Z" fill="#EF7713"/>
<path d="M36.0609 24.2134L16.5699 24.0194L11.0266 23.9642C9.64133 23.9504 9.6378 21.8808 11.0266 21.8946L30.5176 22.0886L36.0609 22.1438C37.4462 22.1576 37.4497 24.2272 36.0609 24.2134Z" fill="#EF7713"/>
<path d="M36.0609 29.0425L16.5699 28.8485L11.0266 28.7933C9.64133 28.7795 9.6378 26.7099 11.0266 26.7237L30.5176 26.9177L36.0609 26.9729C37.4462 26.9867 37.4497 29.0563 36.0609 29.0425Z" fill="#EF7713"/>
<path d="M45.9328 62.7248C46.9066 62.7248 47.6961 61.9663 47.6961 61.0306C47.6961 60.0949 46.9066 59.3364 45.9328 59.3364C44.9589 59.3364 44.1694 60.0949 44.1694 61.0306C44.1694 61.9663 44.9589 62.7248 45.9328 62.7248Z" fill="#E6E6E6"/>
</g>
<defs>
<clipPath id="clip0_1976_20093">
<rect width="93" height="98" fill="white" transform="translate(0 0.5)"/>
</clipPath>
</defs>
</svg>
